<?xml version="1.0" encoding="utf-8"?>
<!-- Generator: Adobe Illustrator 24.2.1, SVG Export Plug-In . SVG Version: 6.00 Build 0)  -->
<svg version="1.1" id="katman_1" xmlns="http://www.w3.org/2000/svg" xmlns:xlink="http://www.w3.org/1999/xlink" x="0px" y="0px"
	 viewBox="0 0 3840 2160" style="enable-background:new 0 0 3840 2160;" xml:space="preserve">
<style type="text/css">
	.st0{fill:#DF392E;}
</style>
<path class="st0" d="M2952.8,1245.3h116.6v-118.8h39l143.7,118.7H3420l-201.1-163.4l187-167h-164.8L3109.6,1031h-44.3V914.8h-112.4
	L2952.8,1245.3L2952.8,1245.3z M762.7,914.8l178,330.4H816.9l-30.9-56H580.7l-31.5,56H420l183-330.4H762.7z M737.5,1105.5
	l-55.1-96.3l-0.4-0.8l-54.7,97.1L737.5,1105.5z M957.7,1245.2h117v-118.7h39l143.8,118.7h167.8l-201.5-163.4l187.3-167h-164.8
	L1114.8,1031H1070V914.8H957.7L957.7,1245.2z M1648.8,914.8h133c19.9,0,57.3,18,70,56.9c10.3,32.7,3,86.4-24.9,106.1
	c20.3,8.5,34,40.4,35.9,73.4v13.1c-0.4,5.8-1.1,11.5-2.3,16.9c-7.3,36.5-35.9,64.2-58.9,64.2h-354.4c-0.3-110-0.3-220.2-0.7-330.4
	C1513.9,914.8,1581.6,914.8,1648.8,914.8L1648.8,914.8z M1552.5,1153.4h179.3c10,0,18.3-8.1,18.3-17.7s-8.4-17.3-18.3-17.3h-179.3
	V1153.4z M1648.8,1034.6h78.4c10,0,18-8.1,18-17.7c0-9.6-8-17.7-18-17.7h-174.7v35.3L1648.8,1034.6L1648.8,1034.6z M2416.5,914.8
	v330.4h118.1v-221.9l168.1,221.9h182.1V914.8h-116.6v230.9l-171.3-230.9H2416.5z M2218,914.8l178,330.4h-123.5l-30.7-54.9h-205.3
	l-31,54.9h-129.2l182.9-330.4H2218z M2194.4,1105.5l-55.4-96.3l-0.4-0.8l-54.6,97.1L2194.4,1105.5z"/>
</svg>
