<svg id="Layer_2" data-name="Layer 2" xmlns="http://www.w3.org/2000/svg" viewBox="0 0 407.74 133.84"><defs><style>.cls-1{fill:#2e2a25;}.cls-2{fill:#00a8e1;}</style></defs><title>logo-tr</title><path class="cls-1" d="M372.67,100.65c-18.52,0-32.54-12.15-34.51-14.58l12.11-13a45.49,45.49,0,0,0,20.64,9c7.34,1.21,12.7-.56,14.14-2.7a4.06,4.06,0,0,0-.89-5.83C382,71.82,378.23,70.46,372,69l-.71-.17c-11.9-2.8-29.49-8.18-29.49-25.06,0-10.5,7.3-18.75,20-22.63,11.58-3.53,31.18-.25,42,7L393.15,43.91c-7.81-5.76-21.59-7.32-25.83-4.79a3.77,3.77,0,0,0-.29,6.45c5.07,3.47,29.65,8.62,36.31,17.57,5.65,7.57,5.52,16.64-.3,24.51s-17.49,13-30.38,13" transform="translate(0.24 0.14)"/><path class="cls-1" d="M28.89,21.88H-.24V98.58H28.89c23,0,39.07-15.65,39.07-38.06v-.29c0-22.58-16.07-38.35-39.07-38.35M49.41,60.52c0,12-7.87,19.52-20.53,19.52H18.3V40.42H28.89c12.66,0,20.53,7.59,20.53,19.81Z" transform="translate(0.24 0.14)"/><path class="cls-1" d="M380.55,115.86a7.72,7.72,0,1,0-7.72,7.72,7.72,7.72,0,0,0,7.72-7.72" transform="translate(0.24 0.14)"/><path class="cls-1" d="M213.85,53.51V68.25H227a20.82,20.82,0,1,1-3.77-22l14.57-13.2a40.48,40.48,0,1,0,10.47,27.17V53.51Z" transform="translate(0.24 0.14)"/><rect class="cls-1" x="196.46" width="23.37" height="12.48"/><path class="cls-1" d="M331.67,21.93H312v40c0,10.24-7.49,19.18-17.74,19.18s-17.24-8.94-17.24-19.18v-40H257.45v40c0,21.07,15.61,38.81,36.68,38.81S331.68,83,331.68,61.91c0-.25,0-.5,0-.68Z" transform="translate(0.24 0.14)"/><path class="cls-2" d="M129.63,97.57a17.93,17.93,0,0,0-2.43-7.42c-.8-1.33-3-4.53-6-5.35a10.31,10.31,0,0,0-3.55-.25c-.52,0-1.07.12-1.69.23-2.14.37-4.58.92-6.36,2.7s-3.84,6.24-3.82,12.73q1.91.54,3.86.91c-.18-6.91,1.88-10,2.72-10.88s2.64-1.33,4.26-1.61c.51-.09,1-.15,1.36-.18a6.56,6.56,0,0,1,2.18.13c1.09.3,2.57,1.74,3.68,3.59a14.05,14.05,0,0,1,1.89,5.74,9,9,0,0,1-.23,2.22c-.05.3-.11.61-.16.93a42.23,42.23,0,0,0,4.14-1,10,10,0,0,0,.14-2.43" transform="translate(0.24 0.14)"/><path class="cls-2" d="M138.08,89.57a21.35,21.35,0,0,0-6.79-10.47,20.17,20.17,0,0,0-3.36-2.17c-.61-.34-1.18-.65-1.74-1a10,10,0,0,0-5.69-1.43c-.54,0-1.1,0-1.67,0a28.44,28.44,0,0,0-6.84.82,30.79,30.79,0,0,0-5.26,2.24l-.71.35a14.83,14.83,0,0,0-3.4,2.11,12.55,12.55,0,0,0-1.6,1.78c-2.65,3.46-4.25,9-4.52,14.46a41.14,41.14,0,0,0,3.82,1.93,38.3,38.3,0,0,1,.44-6.4c.76-3.56,1.14-4.72,3.36-7.62A9,9,0,0,1,105.23,83a11.62,11.62,0,0,1,2.54-1.53l.72-.36a27.89,27.89,0,0,1,4.58-2,25.1,25.1,0,0,1,5.91-.68c.52,0,1,0,1.53,0a6.24,6.24,0,0,1,3.57.81c.67.43,1.33.79,2,1.14a16.77,16.77,0,0,1,2.74,1.74,17.39,17.39,0,0,1,5.53,8.54,17.2,17.2,0,0,1,.64,4.68v2.61a42.12,42.12,0,0,0,3.9-2.08v-.53a21.16,21.16,0,0,0-.79-5.74" transform="translate(0.24 0.14)"/><path class="cls-2" d="M137,74.53A27.2,27.2,0,0,0,127.44,68a26.28,26.28,0,0,0-9.56-1.7H117a23.63,23.63,0,0,0-6.6,1,36,36,0,0,0-7.61,3.83,22.44,22.44,0,0,0-4.6,3.39,19.23,19.23,0,0,0-2.85,4A41.67,41.67,0,0,0,92.78,84a40.94,40.94,0,0,0-2.21,8.16q1.49,1.26,3.07,2.35a49.2,49.2,0,0,1,2.6-9.54,35.89,35.89,0,0,1,2.25-4.76,14.62,14.62,0,0,1,2.31-3.05,20.09,20.09,0,0,1,4-2.61,32.94,32.94,0,0,1,6.78-3.44,19.67,19.67,0,0,1,5.52-.86h.77A22.35,22.35,0,0,1,126,71.63a23.3,23.3,0,0,1,8.18,5.62,24,24,0,0,1,6.85,13.33c.16,1.2.29,1.69.44,3.53a42.33,42.33,0,0,0,3.55-2.81c0-.41-.07-.82-.12-1.23A27.94,27.94,0,0,0,137,74.53" transform="translate(0.24 0.14)"/><path class="cls-2" d="M144.59,66c-2.7-2.55-6.47-4.06-9.8-5.4-.75-.3-1.48-.59-2.19-.89l-3.73-1.58A37.39,37.39,0,0,0,122,55.74a32.75,32.75,0,0,0-4.1-.59c-6-.48-10.71.26-14.57,2.27A39.5,39.5,0,0,0,87.81,71.15a51.68,51.68,0,0,0-5.4,11.71s1.75,2.56,2.75,3.79a61.62,61.62,0,0,1,6-13.53c2.78-4.75,7.46-8.87,13.91-12.23,3.19-1.66,7.19-2.26,12.46-1.84a28.75,28.75,0,0,1,3.61.52,33.92,33.92,0,0,1,6.19,2.18l3.72,1.58c.73.31,1.48.61,2.26.92,3.15,1.26,6.41,2.57,8.57,4.61a25.48,25.48,0,0,1,6.29,9.4,41.63,41.63,0,0,1,2,7.64,41.62,41.62,0,0,0,3.07-4.4,42.25,42.25,0,0,0-1.41-4.6A29.42,29.42,0,0,0,144.59,66" transform="translate(0.24 0.14)"/><path class="cls-2" d="M145.65,52.5a62.26,62.26,0,0,0-6.14-3.12,60,60,0,0,0-12.64-4.52,46.27,46.27,0,0,0-9.12-.84h-1.19a47.49,47.49,0,0,0-23.15,6.33,17.9,17.9,0,0,0-2.74,2c-.53.45-1,.87-1.57,1.25a51.53,51.53,0,0,0-4.92,3.76,34.78,34.78,0,0,0-7.7,9.54l-.12.23a41.63,41.63,0,0,0,1.48,6.1L78,73c.63-1.47,1.23-2.86,1.95-4.19a30.81,30.81,0,0,1,6.84-8.46,48.23,48.23,0,0,1,4.56-3.48c.7-.48,1.29-1,1.86-1.47a14.83,14.83,0,0,1,2.16-1.62,43.57,43.57,0,0,1,21.24-5.82h1.13a42.54,42.54,0,0,1,8.37.77,56.67,56.67,0,0,1,11.8,4.25,58.21,58.21,0,0,1,5.76,2.92A32.17,32.17,0,0,1,156.74,71l.38.95.23.57a42.09,42.09,0,0,0,1.48-6.2A36.11,36.11,0,0,0,145.65,52.5" transform="translate(0.24 0.14)"/><path class="cls-2" d="M152.75,47.62a47.19,47.19,0,0,0-13.12-7.21,96.76,96.76,0,0,0-9.57-2.67,49.74,49.74,0,0,0-12.3-2h-.59a55,55,0,0,0-10.9,1.56,52.43,52.43,0,0,0-22,10.25,67.63,67.63,0,0,0-8.16,8.11,41.78,41.78,0,0,0-.26,5.84A53,53,0,0,1,86.37,50.34a49.36,49.36,0,0,1,30.8-10.75h.55a49.23,49.23,0,0,1,11.83,1.57,83.55,83.55,0,0,1,8.69,2.9c4.25,1.62,8.69,3.44,12.27,6.35A31.56,31.56,0,0,1,159.32,61a42,42,0,0,0-.3-6.42,44.12,44.12,0,0,0-6.27-7" transform="translate(0.24 0.14)"/><path class="cls-2" d="M137.69,32.27a55.86,55.86,0,0,0-6.28-1.41A102,102,0,0,0,117.81,29a46.24,46.24,0,0,0-6.54.13c-7.36.7-14.2,3.4-20.81,6a36.28,36.28,0,0,0-10.35,6.73,41.91,41.91,0,0,0-3,8.07c2.73-3.63,10.17-9.35,14.58-11.38a63,63,0,0,1,19.93-5.55,42.39,42.39,0,0,1,6-.12,98.78,98.78,0,0,1,13.08,1.75A51,51,0,0,1,136.55,36a99.67,99.67,0,0,1,9.53,4,42.37,42.37,0,0,1,11.73,8.54,41.17,41.17,0,0,0-2.37-6.4,66.9,66.9,0,0,0-11.32-7.23,40.32,40.32,0,0,0-6.44-2.67" transform="translate(0.24 0.14)"/><path class="cls-2" d="M122.94,18.66A41.91,41.91,0,0,0,89.66,29.25a42.61,42.61,0,0,0-3.27,3.31c0,.05,0,.09,0,.06.87-.49,1.75-1,2.65-1.6a68.6,68.6,0,0,1,15.71-6.71,43.78,43.78,0,0,1,13-1.88c.74,0,1.47,0,2.21,0a44.27,44.27,0,0,1,8.35,1A62.61,62.61,0,0,1,147.59,31c.13.08.16,0,.05-.11a41.24,41.24,0,0,0-24.7-12.24" transform="translate(0.24 0.14)"/><path class="cls-2" d="M81.7,115a1.55,1.55,0,0,1-1.15-.48,1.65,1.65,0,0,1,0-2.31,1.59,1.59,0,0,1,2.29,0,1.65,1.65,0,0,1,0,2.31A1.55,1.55,0,0,1,81.7,115Zm-1.54.66h3.05v14.75H80.17Z" transform="translate(0.24 0.14)"/><path class="cls-2" d="M86.46,115.67h2l8.28,9.53v-9.53h2.89v14.75h-2l-8.3-9.51v9.51H86.46Z" transform="translate(0.24 0.14)"/><path class="cls-2" d="M106.62,130.62a6,6,0,0,1-2.71-.94,5.19,5.19,0,0,1-1.71-1.88l2.15-1.6a4.62,4.62,0,0,0,1.31,1.34,3.3,3.3,0,0,0,1.89.52,3,3,0,0,0,1.8-.45,1.53,1.53,0,0,0,.61-1.31,1.59,1.59,0,0,0-.16-.76,1.57,1.57,0,0,0-.5-.54,4,4,0,0,0-.84-.43q-.5-.19-1.2-.4a13.87,13.87,0,0,1-1.83-.7,5.51,5.51,0,0,1-1.42-.94,3.93,3.93,0,0,1-.92-1.29,4.26,4.26,0,0,1-.33-1.74,3.82,3.82,0,0,1,1.26-2.83,4.71,4.71,0,0,1,1.56-.92,6.09,6.09,0,0,1,2.14-.35,6.94,6.94,0,0,1,1.8.22,5.3,5.3,0,0,1,1.41.59,5.06,5.06,0,0,1,1.08.88,6.32,6.32,0,0,1,.79,1.06l-2.15,1.6a4.32,4.32,0,0,0-1.33-1.35,3.13,3.13,0,0,0-1.56-.37,1.88,1.88,0,0,0-1.43.44,1.47,1.47,0,0,0-.45,1.05,1.52,1.52,0,0,0,.13.67,1.29,1.29,0,0,0,.44.49,4,4,0,0,0,.78.41q.47.2,1.15.42a18.38,18.38,0,0,1,1.91.75,6.32,6.32,0,0,1,1.49.94,3.87,3.87,0,0,1,1,1.28,4.1,4.1,0,0,1,.35,1.76,4.31,4.31,0,0,1-.25,1.42,4,4,0,0,1-.76,1.3,4.59,4.59,0,0,1-1.3,1,5.67,5.67,0,0,1-1.9.59l-1.41,3.11h-2.09Z" transform="translate(0.24 0.14)"/><path class="cls-2" d="M120.36,115.67h2.54l6.33,14.75h-3.42l-1.25-3.09H118.5l-1.23,3.09h-3.22Zm-1,9.36h4.26l-2.13-5.33Z" transform="translate(0.24 0.14)"/><path class="cls-2" d="M136.65,115.67h2.54l6.33,14.75H142.1l-1.25-3.09h-6.06l-1.23,3.09h-3.22Zm-1,9.36H140l-2.13-5.33Z" transform="translate(0.24 0.14)"/><path class="cls-2" d="M144.89,115.67h10.94v2.6H151.9v12.15h-3.07V118.27h-3.93Z" transform="translate(0.24 0.14)"/></svg>