<?xml version="1.0" encoding="utf-8"?>
<!-- Generator: Adobe Illustrator 19.0.0, SVG Export Plug-In . SVG Version: 6.00 Build 0)  -->
<svg version="1.1" id="layer" xmlns="http://www.w3.org/2000/svg" xmlns:xlink="http://www.w3.org/1999/xlink" x="0px" y="0px"
	 viewBox="-153 -46 652 652" style="enable-background:new -153 -46 652 652;" xml:space="preserve">
<style type="text/css">
	.st0{clip-path:url(#SVGID_2_);fill:url(#SVGID_3_);}
	.st1{filter:url(#Adobe_OpacityMaskFilter);}
	.st2{enable-background:new    ;}
	.st3{clip-path:url(#SVGID_6_);}
	.st4{clip-path:url(#SVGID_8_);fill:url(#SVGID_9_);}
	.st5{mask:url(#SVGID_4_);}
	.st6{clip-path:url(#SVGID_11_);fill:url(#SVGID_12_);}
	.st7{filter:url(#Adobe_OpacityMaskFilter_1_);}
	.st8{clip-path:url(#SVGID_15_);fill:url(#SVGID_16_);}
	.st9{mask:url(#SVGID_13_);}
	.st10{clip-path:url(#SVGID_18_);fill:url(#SVGID_19_);}
	.st11{filter:url(#Adobe_OpacityMaskFilter_2_);}
	.st12{clip-path:url(#SVGID_22_);}
	.st13{clip-path:url(#SVGID_24_);fill:url(#SVGID_25_);}
	.st14{mask:url(#SVGID_20_);}
	.st15{clip-path:url(#SVGID_27_);fill:url(#SVGID_28_);}
	.st16{filter:url(#Adobe_OpacityMaskFilter_3_);}
	.st17{clip-path:url(#SVGID_31_);fill:url(#SVGID_32_);}
	.st18{mask:url(#SVGID_29_);}
	.st19{clip-path:url(#SVGID_34_);fill:url(#SVGID_35_);}
	.st20{filter:url(#Adobe_OpacityMaskFilter_4_);}
	.st21{clip-path:url(#SVGID_38_);}
	.st22{clip-path:url(#SVGID_40_);fill:url(#SVGID_41_);}
	.st23{mask:url(#SVGID_36_);}
	.st24{clip-path:url(#SVGID_43_);fill:url(#SVGID_44_);}
	.st25{fill:#FFFFFF;}
</style>
<g>
	<defs>
		<path id="SVGID_1_" d="M542.1,43.7c-5.9,3.5-11.1,8.3-15.3,14.3l-64,96.7l-64,96.7l-71.5,108c0,0,16.4,27.7,16.8,27.9
			c2.6,3.5,5.9,6.8,9.9,9.6c20.3,14.1,51,6.1,65.1-14.1L450,339l158.3-224.1c15.7-22.5,10.1-53.5-12.4-69.1c-1-0.7-1.9-1.3-2.9-1.9
			H542.1z"/>
	</defs>
	<clipPath id="SVGID_2_">
		<use xlink:href="#SVGID_1_"  style="overflow:visible;"/>
	</clipPath>
	
		<linearGradient id="SVGID_3_" gradientUnits="userSpaceOnUse" x1="-297.4302" y1="572.0413" x2="-290.8677" y2="572.0413" gradientTransform="matrix(-13.1309 54.9478 54.9478 13.1309 -34828.2148 8916.3438)">
		<stop  offset="0" style="stop-color:#E74519"/>
		<stop  offset="0.1933" style="stop-color:#E74519"/>
		<stop  offset="0.2597" style="stop-color:#E95117"/>
		<stop  offset="0.4892" style="stop-color:#EF7711"/>
		<stop  offset="0.6743" style="stop-color:#F38E0D"/>
		<stop  offset="0.7906" style="stop-color:#F4960C"/>
		<stop  offset="0.7972" style="stop-color:#F4960C"/>
		<stop  offset="1" style="stop-color:#F4960C"/>
	</linearGradient>
	<polygon class="st0" points="706.9,63.6 607.9,477.9 244.4,391.1 343.4,-23.3 	"/>
</g>
<g>
	<defs>
		<filter id="Adobe_OpacityMaskFilter" filterUnits="userSpaceOnUse" x="233.1" y="148.5" width="216.9" height="255.4">
			<feFlood  style="flood-color:white;flood-opacity:1" result="back"/>
			<feBlend  in="SourceGraphic" in2="back" mode="normal"/>
		</filter>
	</defs>
	<mask maskUnits="userSpaceOnUse" x="233.1" y="148.5" width="216.9" height="255.4" id="SVGID_4_">
		<g class="st1">
			<g>
				<defs>
					<rect id="SVGID_5_" x="327.4" y="251.4" width="122.6" height="152.5"/>
				</defs>
				<clipPath id="SVGID_6_">
					<use xlink:href="#SVGID_5_"  style="overflow:visible;"/>
				</clipPath>
				<g class="st2">
					<g>
						<defs>
							<path id="SVGID_7_" d="M327.4,359.4l16.1,27.6c0,0,0.2,0.1,0.6,0.2c2.6,3.6,5.9,6.8,9.9,9.6c20.3,14.1,51,6.1,65.1-14.2
								L450,339c-7.2-12.3-27-46.3-51.1-87.6L327.4,359.4z"/>
						</defs>
						<clipPath id="SVGID_8_" class="st3">
							<use xlink:href="#SVGID_7_"  style="overflow:visible;"/>
						</clipPath>
						
							<linearGradient id="SVGID_9_" gradientUnits="userSpaceOnUse" x1="-377.0707" y1="543.5923" x2="-370.5082" y2="543.5923" gradientTransform="matrix(-6.3834 -5.074 -5.074 6.3834 767.3458 -5030.2632)">
							<stop  offset="0" style="stop-color:#000000"/>
							<stop  offset="8.493305e-002" style="stop-color:#0A0A0A"/>
							<stop  offset="0.2274" style="stop-color:#242424"/>
							<stop  offset="0.4098" style="stop-color:#4E4E4E"/>
							<stop  offset="0.6252" style="stop-color:#898989"/>
							<stop  offset="0.8654" style="stop-color:#D2D2D2"/>
							<stop  offset="1" style="stop-color:#FFFFFF"/>
						</linearGradient>
						<polygon class="st4" points="402.5,470.6 249.6,349.1 374.8,191.6 527.7,313.1 						"/>
					</g>
				</g>
			</g>
		</g>
	</mask>
	<g class="st5">
		<g>
			<g>
				<defs>
					<path id="SVGID_10_" d="M301.9,148.5c-0.6,0-1.1,0-1.7,0c-19.9,0.5-39.3,10.1-51.7,27.5l-15.3,22L306,322.8l21.3,36.5
						c0,0,16.4,27.7,16.8,27.9c2.6,3.5,5.9,6.8,9.9,9.6c6.9,4.8,15,7,23.2,7.1h0.8c15.7-0.1,31.9-8.1,41-21.3L450,339v0
						c-7.2-12.3-27.1-46.3-51.1-87.6c0,0-18.8-32.3-19.5-33.4c-1.2-2-16.4-28-16.5-28.3c-18.2-31.2-35.9-41-59.5-41.2H301.9z"/>
				</defs>
				<clipPath id="SVGID_11_">
					<use xlink:href="#SVGID_10_"  style="overflow:visible;"/>
				</clipPath>
				
					<linearGradient id="SVGID_12_" gradientUnits="userSpaceOnUse" x1="-294.455" y1="569.8961" x2="-287.8925" y2="569.8961" gradientTransform="matrix(0 54.2935 54.2935 0 -30600.1191 16076.9014)">
					<stop  offset="0" style="stop-color:#E74519"/>
					<stop  offset="0.2755" style="stop-color:#E74519"/>
					<stop  offset="0.7451" style="stop-color:#F4960C"/>
					<stop  offset="1" style="stop-color:#F4960C"/>
				</linearGradient>
				<rect x="233.1" y="148.5" class="st6" width="216.9" height="255.4"/>
			</g>
		</g>
	</g>
	<defs>
		<filter id="Adobe_OpacityMaskFilter_1_" filterUnits="userSpaceOnUse" x="57.6" y="146.5" width="324.1" height="385.4">
			<feFlood  style="flood-color:white;flood-opacity:1" result="back"/>
			<feBlend  in="SourceGraphic" in2="back" mode="normal"/>
		</filter>
	</defs>
	<mask maskUnits="userSpaceOnUse" x="57.6" y="146.5" width="324.1" height="385.4" id="SVGID_13_">
		<g class="st7">
			<g class="st2">
				<g>
					<defs>
						<path id="SVGID_14_" d="M300.2,148.5c-19.9,0.5-39.3,10.1-51.7,27.5l-15.3,21.9L306,322.8L379.3,218c-1.2-2-16.3-28-16.5-28.3
							c-18.4-31.5-36.3-41.2-60.2-41.2C301.8,148.5,301,148.5,300.2,148.5"/>
					</defs>
					<clipPath id="SVGID_15_">
						<use xlink:href="#SVGID_14_"  style="overflow:visible;"/>
					</clipPath>
					
						<linearGradient id="SVGID_16_" gradientUnits="userSpaceOnUse" x1="-340.4049" y1="585.3419" x2="-333.8423" y2="585.3419" gradientTransform="matrix(-11.2615 1.9104 1.9104 11.2615 -4597.0488 -5714.103)">
						<stop  offset="0" style="stop-color:#000000"/>
						<stop  offset="1" style="stop-color:#FFFFFF"/>
					</linearGradient>
					<polygon class="st8" points="408.1,318 237.2,347 204.3,153.3 375.2,124.3 					"/>
				</g>
			</g>
		</g>
	</mask>
	<g class="st9">
		<g>
			<g>
				<defs>
					<path id="SVGID_17_" d="M301.9,148.5c-0.6,0-1.1,0-1.7,0c-19.9,0.5-39.3,10.1-51.7,27.5L59.9,445.7c0.3,2.5,0.5,5,0.8,7.5
						c0.1,0.7,0.2,1.3,0.2,2c0.2,1.8,0.4,3.5,0.6,5.3c5,48,34.8,69.3,64.7,69.6h1.2c20.3-0.2,40.5-10,53.1-27.6L306,322.8L379.3,218
						c-1.2-2-16.4-28-16.5-28.3c-18.2-31.2-35.9-41-59.5-41.2H301.9z"/>
				</defs>
				<clipPath id="SVGID_18_">
					<use xlink:href="#SVGID_17_"  style="overflow:visible;"/>
				</clipPath>
				
					<linearGradient id="SVGID_19_" gradientUnits="userSpaceOnUse" x1="-302.615" y1="553.6249" x2="-296.0524" y2="553.6249" gradientTransform="matrix(0.4134 -68.3507 -68.3507 -0.4134 38184.2383 -19927.5918)">
					<stop  offset="0" style="stop-color:#F4960C"/>
					<stop  offset="0.1667" style="stop-color:#F4960C"/>
					<stop  offset="0.2911" style="stop-color:#F28A0E"/>
					<stop  offset="0.5176" style="stop-color:#ED6913"/>
					<stop  offset="0.7273" style="stop-color:#E74519"/>
					<stop  offset="1" style="stop-color:#E74519"/>
				</linearGradient>
				<polygon class="st10" points="57.6,530 59.9,146.5 381.6,148.5 379.3,531.9 				"/>
			</g>
		</g>
	</g>
	<defs>
		<filter id="Adobe_OpacityMaskFilter_2_" filterUnits="userSpaceOnUse" x="-130" y="-3.5" width="492" height="593.1">
			<feFlood  style="flood-color:white;flood-opacity:1" result="back"/>
			<feBlend  in="SourceGraphic" in2="back" mode="normal"/>
		</filter>
	</defs>
	<mask maskUnits="userSpaceOnUse" x="-130" y="-3.5" width="492" height="593.1" id="SVGID_20_">
		<g class="st11">
			<g>
				<defs>
					<rect id="SVGID_21_" x="59.9" y="264" width="147.2" height="266"/>
				</defs>
				<clipPath id="SVGID_22_">
					<use xlink:href="#SVGID_21_"  style="overflow:visible;"/>
				</clipPath>
				<g class="st2">
					<g>
						<defs>
							<path id="SVGID_23_" d="M59.9,445.7c0.3,2.5,1.4,13,1.5,14.8c8.5,81.3,87.7,85.9,119,42l26.6-38.1L186.9,264L59.9,445.7z"/>
						</defs>
						<clipPath id="SVGID_24_" class="st12">
							<use xlink:href="#SVGID_23_"  style="overflow:visible;"/>
						</clipPath>
						
							<linearGradient id="SVGID_25_" gradientUnits="userSpaceOnUse" x1="-339.5536" y1="560.993" x2="-332.9911" y2="560.993" gradientTransform="matrix(-9.6352 -8.9707 -8.9707 9.6352 1954.722 -7989.9443)">
							<stop  offset="0" style="stop-color:#000000"/>
							<stop  offset="0.2789" style="stop-color:#000000"/>
							<stop  offset="0.2942" style="stop-color:#050505"/>
							<stop  offset="1" style="stop-color:#FFFFFF"/>
						</linearGradient>
						<polygon class="st13" points="138.7,619.7 -80.9,415.2 128.2,190.6 347.8,395.1 						"/>
					</g>
				</g>
			</g>
		</g>
	</mask>
	<g class="st14">
		<g>
			<g>
				<defs>
					<path id="SVGID_26_" d="M99.5,56c-21.1,0-41.8,9.8-54.9,28.4l-19.6,28v0.1c6.6,63.3,13.9,133.1,21.6,205.7
						c0,0,14.9,141.8,14.9,142.2c5,48,34.8,69.3,64.7,69.6h1.2c20.3-0.2,40.5-10,53.1-27.6l26.6-38.1L186.9,264L174,136.2l-0.3-3.3
						c-5-53.6-42.4-76.9-74-76.9C99.6,56,99.6,56,99.5,56"/>
				</defs>
				<clipPath id="SVGID_27_">
					<use xlink:href="#SVGID_26_"  style="overflow:visible;"/>
				</clipPath>
				
					<linearGradient id="SVGID_28_" gradientUnits="userSpaceOnUse" x1="-303.77" y1="557.0831" x2="-297.2074" y2="557.0831" gradientTransform="matrix(-28.112 -75.5165 -75.5165 28.112 33754.6523 -38013.9297)">
					<stop  offset="0" style="stop-color:#F4960C"/>
					<stop  offset="0.1667" style="stop-color:#F4960C"/>
					<stop  offset="0.5444" style="stop-color:#EB5E15"/>
					<stop  offset="0.7063" style="stop-color:#E74519"/>
					<stop  offset="1" style="stop-color:#E74519"/>
				</linearGradient>
				<polygon class="st15" points="47.1,589.5 -130,113.7 184.9,-3.5 362,472.3 				"/>
			</g>
		</g>
	</g>
	<defs>
		<filter id="Adobe_OpacityMaskFilter_3_" filterUnits="userSpaceOnUse" x="-325.9" y="-90" width="672.8" height="679.2">
			<feFlood  style="flood-color:white;flood-opacity:1" result="back"/>
			<feBlend  in="SourceGraphic" in2="back" mode="normal"/>
		</filter>
	</defs>
	<mask maskUnits="userSpaceOnUse" x="-325.9" y="-90" width="672.8" height="679.2" id="SVGID_29_">
		<g class="st16">
			<g class="st2">
				<g>
					<defs>
						<path id="SVGID_30_" d="M99.5,56c-21.1,0-41.8,9.9-54.9,28.4L25,112.4c6.6,63.3,13.9,133.2,21.6,205.8L174,136.2l-0.3-3.3
							c-5-53.7-42.4-76.9-74-76.9C99.6,56,99.6,56,99.5,56"/>
					</defs>
					<clipPath id="SVGID_31_">
						<use xlink:href="#SVGID_30_"  style="overflow:visible;"/>
					</clipPath>
					
						<linearGradient id="SVGID_32_" gradientUnits="userSpaceOnUse" x1="-318.2791" y1="569.7266" x2="-311.7166" y2="569.7266" gradientTransform="matrix(-17.094 0 0 17.094 -5283.7417 -9551.8193)">
						<stop  offset="0" style="stop-color:#000000"/>
						<stop  offset="1" style="stop-color:#FFFFFF"/>
					</linearGradient>
					<rect x="25" y="56" class="st17" width="149" height="262.2"/>
				</g>
			</g>
		</g>
	</mask>
	<g class="st18">
		<g>
			<g>
				<defs>
					<path id="SVGID_33_" d="M99.5,56c-21.1,0-41.8,9.8-54.9,28.4L25,112.4l-26.7,38.1l-46.4,66.2L-153,366.6l7.3,15.5
						c27.6,61,107.5,56.8,134.8,18.1l28.7-41l0.5-0.7l28.2-40.3L174,136.2l-0.3-3.3c-5-53.6-42.4-76.9-74-76.9
						C99.6,56,99.6,56,99.5,56"/>
				</defs>
				<clipPath id="SVGID_34_">
					<use xlink:href="#SVGID_33_"  style="overflow:visible;"/>
				</clipPath>
				
					<linearGradient id="SVGID_35_" gradientUnits="userSpaceOnUse" x1="-291.4323" y1="562.2623" x2="-284.8698" y2="562.2623" gradientTransform="matrix(23.886 38.7688 38.7688 -23.886 -14896.6904 24864.4531)">
					<stop  offset="0" style="stop-color:#E74519"/>
					<stop  offset="0.2727" style="stop-color:#E74519"/>
					<stop  offset="0.3949" style="stop-color:#E95117"/>
					<stop  offset="0.6147" style="stop-color:#EE7112"/>
					<stop  offset="0.8333" style="stop-color:#F4960C"/>
					<stop  offset="1" style="stop-color:#F4960C"/>
				</linearGradient>
				<polygon class="st19" points="84,-90 346.9,336.6 -63,589.2 -325.9,162.5 				"/>
			</g>
		</g>
	</g>
	<defs>
		<filter id="Adobe_OpacityMaskFilter_4_" filterUnits="userSpaceOnUse" x="-451.2" y="-94.7" width="644.4" height="662.6">
			<feFlood  style="flood-color:white;flood-opacity:1" result="back"/>
			<feBlend  in="SourceGraphic" in2="back" mode="normal"/>
		</filter>
	</defs>
	<mask maskUnits="userSpaceOnUse" x="-451.2" y="-94.7" width="644.4" height="662.6" id="SVGID_36_">
		<g class="st20">
			<g>
				<defs>
					<rect id="SVGID_37_" x="-153" y="216.8" width="171.2" height="212"/>
				</defs>
				<clipPath id="SVGID_38_">
					<use xlink:href="#SVGID_37_"  style="overflow:visible;"/>
				</clipPath>
				<g class="st2">
					<g>
						<defs>
							<path id="SVGID_39_" d="M-153,366.6l7.3,15.5c27.6,61,107.5,56.8,134.8,18.1l28.7-41l0.5-0.7l-66.4-141.8L-153,366.6z"/>
						</defs>
						<clipPath id="SVGID_40_" class="st21">
							<use xlink:href="#SVGID_39_"  style="overflow:visible;"/>
						</clipPath>
						
							<linearGradient id="SVGID_41_" gradientUnits="userSpaceOnUse" x1="-334.2394" y1="578.8842" x2="-327.6769" y2="578.8842" gradientTransform="matrix(-8.4506 -4.0648 -4.0648 8.4506 -472.7246 -5888.7896)">
							<stop  offset="0" style="stop-color:#000000"/>
							<stop  offset="0.3789" style="stop-color:#000000"/>
							<stop  offset="0.8194" style="stop-color:#FFFFFF"/>
							<stop  offset="1" style="stop-color:#FFFFFF"/>
						</linearGradient>
						<polygon class="st22" points="-13.9,510 -241.4,400.6 -120.8,149.9 106.7,259.3 						"/>
					</g>
				</g>
			</g>
		</g>
	</mask>
	<g class="st23">
		<g>
			<g>
				<defs>
					<path id="SVGID_42_" d="M-218.5,37.1c-39.9,18-57.6,65-39.6,104.9L-153,366.6l7.3,15.5c27.6,61,107.5,56.8,134.8,18.1l28.7-41
						l0.5-0.7v0l-66.4-141.8l-32.8-70.1l-32.8-70.1C-126.9,47.3-155.7,30-185.9,30C-196.8,30-207.9,32.3-218.5,37.1"/>
				</defs>
				<clipPath id="SVGID_43_">
					<use xlink:href="#SVGID_42_"  style="overflow:visible;"/>
				</clipPath>
				
					<linearGradient id="SVGID_44_" gradientUnits="userSpaceOnUse" x1="-293.0504" y1="560.3903" x2="-286.4879" y2="560.3903" gradientTransform="matrix(24.8047 44.8322 44.8322 -24.8047 -18039.4668 27173.7031)">
					<stop  offset="0" style="stop-color:#E74519"/>
					<stop  offset="0.3817" style="stop-color:#E74519"/>
					<stop  offset="0.9954" style="stop-color:#F4960C"/>
					<stop  offset="1" style="stop-color:#F4960C"/>
				</linearGradient>
				<polygon class="st24" points="-50.7,-94.7 193.3,346.3 -207.1,567.9 -451.2,126.8 				"/>
			</g>
		</g>
	</g>
</g>
<path class="st25" d="M169.5,294.4c0,15.8,12.5,28.3,28.8,28.3c8.5,0,14.8-1.6,22.5-7.5c-0.2-0.3-7-9.9-7-9.9
	c-5,3.9-8.9,5.7-15.2,5.6c-7.6-0.1-14.2-4.7-16-12.5c0.2,0,42.4,0,42.4,0c0.1-1.6,0.2-3.4,0.2-4.3c0-16-12-28.5-27.4-28.5
	C183.4,265.6,169.5,276.1,169.5,294.4 M183.2,287.9c2.3-6.4,7.9-10.3,14.4-10.3c7.2,0,12.5,4.9,14.2,10.3H183.2z M153.4,290.2
	c6.3,2.5,11.9,6.5,11.9,15.2c0,10.6-8.1,17.3-21,17.3c-9.9,0-16.4-3.7-21.3-7.5l6.9-9.9c6.5,5.4,11.6,5.5,14.9,5.5
	c6.8,0,7.9-3.8,7.9-5c0-2.3-2-3.9-4.8-4.8c-2.3-0.7-9.7-3-12.6-4c-5.7-2.1-10.9-6.2-10.9-14.3c0-10.5,7.6-17.3,19.2-17.3
	c5.7,0,14.1,1.3,21,7.2L158,282c-5-3.3-10.3-4.7-14.4-4.7c-5.6,0-6.5,2.7-6.6,4.1c-0.1,2.5,2,3.7,4.5,4.6
	C144,287,151.3,289.3,153.4,290.2 M-0.5,294.4c0-18.3,13.9-28.8,28.2-28.8c15.4,0,27.4,12.5,27.4,28.5c0,0.9-0.1,2.7-0.2,4.3
	c0,0-42.2,0-42.4,0c1.8,7.8,8.5,12.4,16.1,12.5c6.2,0.1,10.2-1.7,15.2-5.6c0,0,6.7,9.6,7,9.9c-7.7,5.9-14,7.5-22.5,7.5
	C11.9,322.7-0.5,310.2-0.5,294.4 M41.7,287.9c-1.7-5.4-7-10.3-14.2-10.3c-6.5,0-12.1,4-14.4,10.3H41.7z M-37.2,240.2h-14.2v80.8h48
	v-13.6h-33.8V240.2z M83,266.1c1.8-0.3,3.6-0.5,5.3-0.5c5.8,0,11.3,1.6,16,5.2v-4.1h13.2v54.5h-13.2v-3.8c-5,3.7-10.1,5.3-16,5.3
	c-13.9,0-25.9-9.8-28.4-23.5L83,266.1 M104.3,294.1c0-8.6-7.4-15.8-16-15.8c-8.6,0-15.9,7.2-15.9,15.8c0,8.6,7.3,15.9,15.9,15.9
	C97.1,310,104.3,302.9,104.3,294.1 M260.7,240.2l-28.8,0v80.8h14.2v-22.6h14.7c14.5,0,30-10,30-29.1
	C290.8,254.1,279.1,240.2,260.7,240.2 M260.6,284.7h-14.5v-30.9c0,0,10.5,0,14.5,0c9.5,0,15.9,7.1,15.9,15.5
	C276.4,278.6,268.9,284.7,260.6,284.7 M422,266c8,1.5,13.8,6.4,16.8,13.4c1.3,3,2,7.4,2,14.8v26.9h-13.3v-28.7
	c0-8.1-4.4-13.8-12.1-13.8c-7.1,0-12,5.6-12,13.1v29.4h-13.2v-54.6h13.2v4.1C410.2,265.6,417.2,265.1,422,266 M345.7,266.1
	c1.8-0.3,3.6-0.5,5.3-0.5c5.8,0,11.3,1.6,16,5.2v-4.1h13.2v54.5H367v-3.9c-5,3.7-10.1,5.3-16,5.3c-13.9,0-25.9-9.8-28.4-23.5
	L345.7,266.1 M367,294.1c0-8.6-7.3-15.8-16-15.8c-8.6,0-15.9,7.2-15.9,15.8c0,8.6,7.3,15.9,15.9,15.9C359.8,310,367,302.9,367,294.1
	 M310.9,301.1v-56.5h-13.3v58.1c0,8.5,4.8,19.2,21.6,19.2c0-0.8,0-12.8,0-12.8C314.7,309.1,310.9,306.5,310.9,301.1"/>
</svg>
