<svg xmlns="http://www.w3.org/2000/svg" viewBox="0 0 221.76 80.745">
  <defs>
    <style>
      .cls-1 {
        fill: #0087c1;
      }

      .cls-2 {
        fill: #fcb22d;
      }
    </style>
  </defs>
  <g id="Layer_2" data-name="Layer 2">
    <g id="Layer_1-2" data-name="Layer 1">
      <g>
        <path class="cls-1" d="M66.39,71.619H47V66H39.8c-27.29.11-25.82,4.41-24.27,6a42.34,42.34,0,0,0,57.88-6h-7Z"/>
        <path class="cls-1" d="M47,43.869H21.44c-17.2.35-20.23,3.9-20.39,6.13a38.9,38.9,0,0,0,3.45,8.93H47Z"/>
        <path class="cls-1" d="M66.39,58.929H78.13a38.271,38.271,0,0,0,2.09-4.62L66.39,44.139Z"/>
        <path class="cls-1" d="M82,32.429a39.21,39.21,0,0,0-3.84-10.64H67.77Z"/>
        <path class="cls-1" d="M47,21.789H24c-16.57.31-20.92,3.94-22.06,6-.14.41-.28.82-.41,1.23V29A39.178,39.178,0,0,0,0,36.859H47Z"/>
        <path class="cls-1" d="M47,6.209l11.45,8.57h15a42.244,42.244,0,0,0-64.19,0H47Z"/>
        <polygon class="cls-2" points="189.21 42.949 172.6 12.149 116.52 12.149 110.75 25.079 133.44 25.079 133.44 69.399 149.86 69.399 149.86 25.079 163.22 25.209 189.21 70.389 221.76 12.149 205.91 12.149 189.21 42.949"/>
        <polygon class="cls-2" points="92.29 42.959 49.26 10.719 49.26 69.399 64.11 69.399 64.11 39.679 107.53 71.589 107.53 12.229 92.29 12.229 92.29 42.959"/>
      </g>
    </g>
  </g>
</svg>
